<svg width="102" height="32" xmlns="http://www.w3.org/2000/svg"><g fill-rule="nonzero" fill="none"><path d="M90.5 15.145h3.652c.14.462.622.924 1.525.924 1.223 0 1.645-.763 1.645-1.887v-.802h-.081c-.602.702-1.405 1.224-2.588 1.224-2.327 0-4.353-1.726-4.353-5.096 0-3.089 1.665-5.496 4.173-5.496 1.444 0 2.327.582 2.909 1.504h.06V4.333h3.61v9.348c0 1.725-.601 3.07-1.504 3.872-.942.842-2.287 1.183-3.811 1.183-2.87 0-4.875-1.183-5.236-3.59zm6.981-5.817c0-1.344-.641-2.427-1.744-2.427-1.064 0-1.746.963-1.746 2.427 0 1.444.682 2.487 1.746 2.487 1.103 0 1.744-1.063 1.744-2.487zm-11.213-3.15h.06c.782-1.504 1.805-2.066 3.11-2.066.3 0 .501.04.62.1v3.31h-.08c-2.226-.4-3.53.663-3.53 3.09v4.513h-3.791V4.333h3.611V6.18zM0 0h7.423c1.403 0 2.487.341 3.25.963.862.702 1.323 1.745 1.323 2.989 0 1.444-.581 2.347-1.785 2.908v.06c1.565.522 2.467 1.926 2.467 3.632 0 1.624-.622 2.888-1.645 3.65-.862.622-1.985.923-3.47.923H0V0zm7.062 11.775c.902 0 1.564-.542 1.564-1.544 0-1.044-.722-1.545-1.584-1.545h-2.93v3.09h2.95zM6.68 5.917c.803 0 1.384-.44 1.384-1.323 0-.863-.601-1.284-1.404-1.284H4.113v2.607H6.68zM13.362 0h3.891v15.125h-3.891V0zm4.634 9.749c0-3.41 2.207-5.717 5.616-5.717 3.41 0 5.577 2.307 5.577 5.717 0 3.43-2.166 5.717-5.577 5.717-3.41 0-5.616-2.287-5.616-5.717zm7.342 0c0-1.885-.602-3.069-1.766-3.069-1.163 0-1.724 1.184-1.724 3.069 0 1.906.561 3.09 1.724 3.09 1.164 0 1.766-1.184 1.766-3.09zm4.294 0c0-3.41 2.207-5.717 5.617-5.717s5.577 2.307 5.577 5.717c0 3.43-2.167 5.717-5.577 5.717s-5.617-2.287-5.617-5.717zm7.342 0c0-1.885-.602-3.069-1.765-3.069-1.164 0-1.725 1.184-1.725 3.069 0 1.906.561 3.09 1.725 3.09 1.163 0 1.765-1.184 1.765-3.09zm4.595-5.416h3.61v1.625h.06c.723-1.264 1.705-1.946 3.25-1.946 1.364 0 2.388.682 2.91 1.865h.06c.882-1.424 2.025-1.865 3.35-1.865 2.507 0 3.59 1.845 3.59 4.333v6.78h-3.791V9.027c0-1.104-.342-1.826-1.304-1.826-.943 0-1.425.883-1.425 2.047v5.877h-3.79V9.027c0-1.104-.342-1.826-1.304-1.826-.944 0-1.425.883-1.425 2.047v5.877H41.57V4.333zm21.467 9.388h-.04v1.404h-3.611V0h3.791v5.456h.06c.723-.942 1.685-1.444 3.07-1.444 2.708 0 4.272 2.447 4.272 5.697 0 3.671-1.705 5.777-4.513 5.777-1.164 0-2.367-.561-3.03-1.765zm3.69-4.052c0-1.745-.64-2.869-1.785-2.869-1.163 0-1.905 1.124-1.905 2.87 0 1.724.742 2.868 1.905 2.868 1.164 0 1.786-1.124 1.786-2.869zm4.335.04c0-3.37 2.226-5.717 5.456-5.717 1.605 0 2.85.501 3.792 1.404 1.244 1.204 1.806 3.09 1.765 5.316h-7.241c.16 1.344.802 2.026 1.945 2.026.662 0 1.244-.3 1.485-1.023h3.65c-.641 2.467-2.547 3.711-5.255 3.711-3.35 0-5.597-2.266-5.597-5.717zm3.772-1.123h3.45C78.223 7.282 77.5 6.6 76.597 6.6c-1.042 0-1.624.742-1.764 1.986z" fill="#FFF"/><path d="M0 16.207h7.423c1.403 0 2.487.341 3.25.963.862.702 1.323 1.745 1.323 2.989 0 1.444-.581 2.347-1.785 2.909v.06c1.565.521 2.467 1.926 2.467 3.63 0 1.626-.622 2.89-1.645 3.652-.862.621-1.985.922-3.47.922H0V16.207zm7.062 11.776c.902 0 1.564-.542 1.564-1.545 0-1.044-.722-1.545-1.584-1.545h-2.93v3.09h2.95zm-.382-5.858c.803 0 1.384-.442 1.384-1.325 0-.862-.601-1.283-1.404-1.283H4.113v2.608H6.68zm13.502 9.208v-1.405h-.06c-.783 1.123-1.786 1.746-3.19 1.746-2.447 0-3.651-1.685-3.651-4.173v-6.96h3.791v6.117c0 1.224.462 1.706 1.365 1.706.983 0 1.564-.662 1.564-1.906V20.54h3.792v10.793h-3.611zm4.213-3.41h3.511c.06.882.582 1.403 1.545 1.403.742 0 1.304-.22 1.304-.962 0-.883-1.184-.943-2.508-1.164-1.725-.26-3.711-.822-3.711-3.53 0-2.207 2.147-3.451 4.654-3.451 3.11 0 4.734 1.224 4.874 3.33h-3.57c-.1-.802-.662-1.023-1.284-1.023-.561 0-1.083.22-1.083.842 0 .603.943.763 2.106.923 1.865.281 4.233.722 4.233 3.712 0 2.587-2.227 3.69-5.035 3.69-3.03 0-5.015-1.303-5.036-3.77zM35.09 20.54h3.791v10.793H35.09V20.54zm0-3.891h3.791v3.028H35.09V16.65zM43.556 22.024h.06c.822-1.183 1.866-1.805 3.29-1.805 2.366 0 3.59 1.665 3.59 4.133v6.98h-3.791v-6.098c0-1.203-.441-1.866-1.425-1.866-.962 0-1.544.803-1.544 2.047v5.918h-3.792V20.54h3.612v1.484zm7.603 3.892c0-3.37 2.227-5.717 5.457-5.717 1.604 0 2.848.502 3.79 1.404 1.245 1.204 1.806 3.09 1.766 5.316H54.93c.16 1.344.803 2.026 1.946 2.026.663 0 1.244-.3 1.485-1.023h3.65c-.642 2.468-2.547 3.712-5.255 3.712-3.35 0-5.597-2.267-5.597-5.718zm3.771-1.123h3.45c-.06-1.304-.781-1.986-1.684-1.986-1.044 0-1.625.742-1.766 1.986zm7.622 3.13h3.51c.06.882.583 1.403 1.545 1.403.742 0 1.304-.22 1.304-.962 0-.883-1.184-.943-2.508-1.164-1.724-.26-3.71-.822-3.71-3.53 0-2.207 2.146-3.451 4.653-3.451 3.11 0 4.734 1.224 4.875 3.33H68.65c-.1-.802-.662-1.023-1.284-1.023-.562 0-1.083.22-1.083.842 0 .603.943.763 2.106.923 1.866.281 4.233.722 4.233 3.712 0 2.587-2.227 3.69-5.035 3.69-3.03 0-5.015-1.303-5.035-3.77zm10.473 0h3.51c.061.882.583 1.403 1.546 1.403.742 0 1.304-.22 1.304-.962 0-.883-1.184-.943-2.508-1.164-1.725-.26-3.71-.822-3.71-3.53 0-2.207 2.146-3.451 4.653-3.451 3.109 0 4.734 1.224 4.875 3.33h-3.571c-.1-.802-.662-1.023-1.284-1.023-.562 0-1.083.22-1.083.842 0 .603.943.763 2.106.923 1.866.281 4.233.722 4.233 3.712 0 2.587-2.227 3.69-5.035 3.69-3.03 0-5.016-1.303-5.036-3.77z" fill="#D8D8D8"/></g></svg>