<svg width="85" height="22" xmlns="http://www.w3.org/2000/svg"><g fill-rule="nonzero" fill="#FFF"><path d="M51.574 6.15c-1.362 0-2.432.297-3.503.892 0-3.174 0-6.05.098-7.042L41.65 1.19v.595l.68.1c.876.197 1.17.693 1.361 1.883.197 2.381.099 15.077 0 17.16 1.753.397 3.602.695 5.45.695 5.158 0 8.271-3.273 8.271-8.432 0-4.066-2.53-7.042-5.838-7.042zM49.336 20.53c-.39 0-.877 0-1.168-.098-.098-1.389-.194-7.242-.098-12.4.584-.198.973-.297 1.46-.297 2.143 0 3.31 2.579 3.31 5.752 0 3.97-1.461 7.043-3.504 7.043zM17.126.397H0v.891l.973.1c1.265.198 1.752.991 1.946 2.876.292 3.57.195 10.018 0 13.092-.195 1.885-.68 2.778-1.946 2.876l-.973.2v.793h10.996v-.794l-1.168-.199c-1.265-.098-1.752-.991-1.946-2.876a82.842 82.842 0 0 1-.195-5.951l2.336.1c1.46 0 2.14 1.19 2.432 2.875h.876V7.34h-.876c-.293 1.686-.973 2.876-2.432 2.876l-2.335.1c0-3.374.097-6.547.195-8.432h3.405c2.628 0 3.99 1.686 4.963 4.662l.973-.298-.097-5.851z"/><path d="M22.558 6.016c4.901 0 7.352 3.359 7.352 7.803 0 4.247-2.744 7.804-7.646 7.804-4.902 0-7.352-3.36-7.352-7.804 0-4.247 2.744-7.803 7.646-7.803zm-.295.988c-2.156 0-2.744 2.963-2.744 6.815 0 3.753.98 6.815 2.941 6.815 2.253 0 2.842-2.964 2.842-6.815 0-3.753-.98-6.815-3.039-6.815zm36.562 6.914c0-4.05 2.549-7.902 7.548-7.902 4.116 0 6.077 3.063 6.077 7.111h-9.116c-.098 3.655 1.666 6.322 5.195 6.322 1.568 0 2.353-.394 3.333-1.086l.392.494c-.98 1.382-3.137 2.766-5.88 2.766-4.412 0-7.549-3.162-7.549-7.705zm4.509-1.876l4.607-.1c0-1.975-.294-4.938-1.96-4.938s-2.55 2.765-2.648 5.038zm20.782-5.235c-1.176-.495-2.743-.79-4.508-.79-3.626 0-5.882 2.172-5.882 4.74 0 2.569 1.665 3.654 4.02 4.445 2.45.888 3.137 1.58 3.137 2.765 0 1.186-.883 2.271-2.451 2.271-1.862 0-3.236-1.085-4.313-4.048l-.686.197.098 4.346c1.176.493 3.332.89 5.195.89 3.823 0 6.274-1.977 6.274-5.038 0-2.075-1.079-3.26-3.627-4.248-2.746-1.086-3.725-1.777-3.725-3.062 0-1.284.884-2.173 2.06-2.173 1.763 0 2.94 1.087 3.823 3.754l.686-.197-.1-3.852zm-41.464-.395c-1.666-.987-4.607-.495-6.175 3.062l.097-3.457-6.566 1.284v.592l.686.1c.883.098 1.274.591 1.372 1.876.196 2.371.098 6.52 0 8.593-.098 1.184-.49 1.777-1.372 1.876l-.686.1v.79h9.114v-.79l-1.175-.1c-.98-.1-1.275-.692-1.373-1.876-.196-1.877-.196-5.63-.097-8 .49-.692 2.645-1.284 4.606 0l1.568-4.05h.001z"/></g></svg>