<svg width="160" height="44" xmlns="http://www.w3.org/2000/svg"><g fill="#455065" fill-rule="nonzero"><path d="M29.857 15.941v4.488h10.727c-.329 2.518-1.168 4.36-2.445 5.655-1.569 1.57-4.013 3.284-8.282 3.284-6.604 0-11.767-5.327-11.767-11.93 0-6.605 5.163-11.932 11.767-11.932 3.557 0 6.166 1.405 8.082 3.21l3.156-3.155C38.43 2.97 34.855 1 29.857 1 20.808 1 13.2 8.37 13.2 17.419s7.607 16.419 16.656 16.419c4.889 0 8.574-1.606 11.457-4.597 2.955-2.956 3.885-7.134 3.885-10.49 0-1.04-.073-2.007-.237-2.81H29.857zM58.608 12.293c-5.856 0-10.636 4.45-10.636 10.599 0 6.093 4.78 10.6 10.636 10.6 5.856 0 10.636-4.489 10.636-10.6 0-6.148-4.78-10.6-10.636-10.6zm0 17.02c-3.21 0-5.984-2.645-5.984-6.421 0-3.813 2.773-6.422 5.984-6.422 3.21 0 5.984 2.61 5.984 6.422 0 3.776-2.773 6.422-5.984 6.422zM110.747 14.664h-.164c-1.04-1.24-3.047-2.371-5.582-2.371-5.29 0-9.906 4.615-9.906 10.599 0 5.947 4.615 10.6 9.906 10.6 2.535 0 4.542-1.132 5.582-2.409h.164v1.478c0 4.05-2.17 6.22-5.655 6.22-2.846 0-4.616-2.042-5.345-3.776l-4.05 1.679c1.167 2.81 4.25 6.257 9.395 6.257 5.455 0 10.07-3.21 10.07-11.037V12.84h-4.415v1.824zm-5.345 14.65c-3.21 0-5.655-2.737-5.655-6.422 0-3.74 2.444-6.422 5.655-6.422 3.174 0 5.655 2.737 5.655 6.458.019 3.704-2.48 6.386-5.655 6.386zM82.324 12.293c-5.856 0-10.635 4.45-10.635 10.599 0 6.093 4.78 10.6 10.635 10.6 5.856 0 10.636-4.489 10.636-10.6 0-6.148-4.78-10.6-10.636-10.6zm0 17.02c-3.21 0-5.983-2.645-5.983-6.421 0-3.813 2.773-6.422 5.983-6.422 3.211 0 5.984 2.61 5.984 6.422 0 3.776-2.773 6.422-5.984 6.422zM118.81 1.438h4.58V33.49h-4.58zM137.528 29.314c-2.371 0-4.05-1.077-5.144-3.211l14.175-5.856-.475-1.204c-.875-2.372-3.575-6.75-9.066-6.75-5.455 0-9.998 4.287-9.998 10.599 0 5.947 4.488 10.6 10.508 10.6 4.853 0 7.663-2.974 8.83-4.69l-3.612-2.407c-1.204 1.75-2.846 2.919-5.218 2.919zM137.2 16.27c1.88 0 3.484.966 4.014 2.335l-9.578 3.959c0-4.452 3.156-6.294 5.564-6.294z"/></g></svg>