<svg width="160" height="44" xmlns="http://www.w3.org/2000/svg"><g fill="#455065" fill-rule="nonzero"><path d="M20.694 23.177c-.02 0 0 9.752 0 9.752 0 1.227-1.054 2.302-2.434 2.302h-1.322v.497h11.19v-.497h-1.322c-1.36 0-2.433-1.092-2.433-2.302V11.202c0-1.189 1.053-2.299 2.433-2.299h1.322v-.5h-11.19v.5h1.322c1.399 0 2.434 1.11 2.434 2.3v10.594H7.436V11.202c0-1.189 1.072-2.299 2.433-2.299h1.32v-.5H0v.5h1.323c1.379 0 2.434 1.11 2.434 2.3v21.726c0 1.21-1.055 2.302-2.434 2.302H0v.497h11.19v-.497H9.869c-1.361 0-2.433-1.092-2.433-2.302 0 0 .017-9.752 0-9.752h13.258zM47.304 28.578c.097 1.606-.9 4.043-2.28 5.287-1.327 1.2-3.219 2.243-5.747 2.243-2.874 0-5.346-1.533-6.247-1.878-.546-.21-1.26-.187-1.687.077-.498.307-.804.804-.92 1.725h-.42v-9.467h.42c.384 2.913 1.744 4.624 2.588 5.596 1.38 1.59 3.985 2.49 6.495 2.088 1.995-.32 4.177-2.483 3.937-5.164-.085-.967-.297-2.374-2.307-3.688-1.262-.825-3.055-1.995-4.753-3.123-2.144-1.421-4.09-2.96-4.636-3.583-.718-.817-1.61-1.992-1.61-3.871 0-1.61.613-3.448 1.916-4.675C33.356 8.919 35.119 8 37.647 8c2.53 0 4.447 1.34 5.098 1.647.65.306 1.37.234 1.78 0 .404-.23.672-.576.787-1.495h.422v8.968h-.422c-.383-2.914-1.648-5.096-2.53-5.901-.88-.806-2.605-1.917-5.172-1.419-2.464.478-3.663 1.592-3.89 3.563-.173 1.503.642 2.428 1.111 2.99.959 1.148 7.038 4.594 9.792 6.975 1.418 1.225 2.53 2.683 2.681 5.25M56.212 34.183c1.893.585 5.496 1.036 8.007-.764 3.013-2.156 3.648-7.426-.604-10.171-1.712-1.107-5.985-1.03-7.403-.697v11.632zm0-13.172c1.34.344 5.29.437 6.82-.537 2.402-1.524 3.234-3.97 2.792-6.132-.266-1.3-.954-2.499-2.14-3.333-2.337-1.648-5.709-1.38-7.472-.844v10.846zm8.814.765c4.87 1.672 6.259 5.11 5.355 8.652-1.062 4.165-5.758 5.011-7.28 5.213-.688.09-2.443.082-4.177.082-3.096.004-7.012-.006-10.157-.006v-.498h1.61c1.024 0 2.193-.863 2.193-2.165V11.239c0-1.304-1.169-2.184-2.183-2.184h-1.61v-.5h9.715c2.337 0 3.606.225 4.427.385 1.378.267 5.403 1.456 6.36 5.21.742 2.907-.708 6.573-4.253 7.626zM95.993 8.882l.394 9.254-.556.02c-.268-2.339-1.15-3.986-2.261-5.06-.32-.308-.927-.933-1.803-1.485-1.458-.919-3.628-1.732-6.206-1.273-3.87.69-5.864 3.248-6.86 5.71-1.227 3.027-2.003 8.203.078 12.57 1.687 3.545 4.93 5.022 7.433 5.403 2.132.325 6.86.225 10.462-4.636l.575.383c-2.799 3.947-6.515 6.476-10.769 6.437-5.44-.048-8.86-3.047-10.423-4.828-1.648-1.878-2.913-5.441-2.929-8.546-.012-2.76.596-5.83 1.587-7.626 1.706-3.084 5.27-6.15 9.963-6.61 3.516-.344 5.826.345 7.8 1.475.986.566 1.54.63 2.078.403.535-.231.968-.69.968-1.59h.47zM105.395 22.079l13.651 13.65V8.427zM119.048 35.727h27.3l-13.65-13.65z"/><path d="M132.698 22.078l13.65-13.65h-27.3zM146.35 8.428v27.3L160 22.078z"/></g></svg>