<svg width="160" height="44" xmlns="http://www.w3.org/2000/svg"><g fill="#455065" fill-rule="nonzero"><path d="M.2 7.4c.12.2.68.4 1.2.4.48 0 1.04.28 1.16.64.44 1.12.28 26.16-.16 27-.24.4-.8.76-1.2.76-.44 0-.8.16-.8.4 0 .24 4 .4 11.16.4h11.2l.44-2.2c.6-3 .36-4.08-.52-2.08-.92 2.16-2.44 2.68-7.76 2.68-4.88-.04-7.64-.44-8.16-1.24-.2-.32-.36-6.28-.36-13.28 0-11.76.04-12.72.72-12.92 2.36-.76 1.96-.92-2.44-.92C1.64 7 .04 7.16.2 7.4zM34.04 22.48c-2.48 6.56-4.92 12.32-5.36 12.84-.44.48-1.24.88-1.72.88-.52 0-1.04.2-1.16.4-.16.24 1.24.4 3.88.4 3.92-.04 4.08-.04 3-.64-1.32-.72-1.32-.72.6-6.28l1.24-3.52 4 .12 4.04.12 1.72 4.4c.92 2.4 1.6 4.72 1.48 5.08-.2.64.16.72 3.44.72 2.32 0 3.56-.16 3.4-.4-.12-.24-.64-.4-1.16-.4-1.76 0-1.96-.4-8.44-16.12-2.12-5.2-4.04-9.48-4.16-9.48-.16 0-2.32 5.36-4.8 11.88zm4.64 2.44c-1.76.08-3.28.04-3.36-.08-.2-.2 1.52-5.68 2.6-8.24l.56-1.4 1.68 4.8 1.72 4.8-3.2.12zM85.96 22.64c-2.48 6.6-4.88 12.36-5.28 12.8-.4.4-1.16.76-1.68.76s-1.08.2-1.2.4c-.16.24 1.24.4 3.88.4 3.88-.04 4.04-.08 3-.64-1.28-.68-1.24-.8.64-6.28l1.2-3.52 4 .12 4.04.12 1.72 4.4c.92 2.4 1.6 4.72 1.48 5.08-.2.64.16.72 3.48.72 3.72 0 4.16-.24 1.84-1-1.6-.52-2.32-1.96-7.92-15.52-2.2-5.44-4.16-9.88-4.32-9.88-.16 0-2.36 5.4-4.88 12.04zm4.72 2.28c-1.76.08-3.28.04-3.36-.08-.2-.2 1.52-5.68 2.6-8.24l.56-1.4 1.68 4.8 1.72 4.8-3.2.12zM56.84 13.52c-.52 3.08-.52 3.08-.08 3.08.2 0 .56-.56.84-1.24.92-2.2 1.8-2.48 8.92-2.68l6.44-.2L71 15.24c-1.08 1.52-5.04 6.76-8.8 11.68-3.72 4.92-6.84 9.2-6.92 9.52-.12.48 1.32.56 9.64.56h9.8l.2-.92c.44-1.84.76-4.88.48-4.6-.16.12-.56.84-.92 1.6-.44.88-1.16 1.48-2.08 1.8-1.36.44-12.4.76-12.4.32 0-.12.88-1.44 1.96-2.92 5.64-7.72 14.4-20.64 14.2-20.96-.12-.16-4.4-.32-9.56-.32h-9.32l-.44 2.52zM106.8 11.36c0 .24.4.44.92.44 1.84 0 1.88.32 1.88 11.64 0 10.64-.24 12.76-1.36 12.76-.32 0-.72.2-.84.4-.16.24 1.28.4 4.04.4 2.64 0 4.16-.16 3.96-.36-.24-.2-.84-.44-1.4-.52-1.2-.16-1.56-1.6-1.56-6.64l-.04-3.28h5.84l3.36 4.48c4.36 5.76 5.2 6.32 9.16 6.28 2.96 0 3.08-.36.4-.92-1.6-.36-2.96-1.6-6.76-6.36l-3.56-4.44 1.4-1.56c3.8-4.16 3.4-9.56-.84-11.68-1.32-.64-2.68-.8-8.08-.92-4.64-.12-6.52-.04-6.52.28zm10.2 1.28c2.32.64 4.48 2.96 4.8 5.2.32 2.12-.32 4.88-1.4 5.96-.92.92-3.96 1.4-6.12.96l-1.68-.36-.12-5.88c-.08-5.32-.04-5.88.6-6.04 1.28-.32 2.28-.28 3.92.16zM136 11.4c0 .2.52.4 1.2.4.76 0 1.32.28 1.6.76.24.48.4 4.88.4 11.44s-.16 10.96-.4 11.44c-.24.44-.84.76-1.4.76-.52 0-1.08.16-1.2.4-.44.68 12.48.52 14.92-.2 4-1.2 7.12-4.56 8.28-9.04.8-2.92.76-5.04-.16-7.92-1.36-4.44-4.2-6.92-9-7.92-2.92-.6-14.24-.72-14.24-.12zm14.68 2.28c4.36 2.04 6.32 5.84 6.04 11.68-.24 4.76-1.8 7.52-5.24 9.28-1.72.88-5.88 1.4-8.04 1l-1.44-.28.08-11.28.12-11.28 1.4-.24c2.2-.36 4.84.04 7.08 1.12z"/></g></svg>