<svg width="160" height="44" xmlns="http://www.w3.org/2000/svg"><g fill="#455065" fill-rule="nonzero"><path d="M81.99 20.172c1.145 0 2.115.723 2.115 1.644 0 .92-.97 1.664-2.114 1.664-1.17 0-2.114-.743-2.114-1.664 0-.92.944-1.644 2.114-1.644M75.921 25.396v-1.195h-4.103v2.589c.373.075.472.448.423.721v3.981c0 .325-.076 1.018-.423 1.143v2.313h4.925v-2.213c-.25-.05-.572-.475-.572-.848V29.45c0-1.217.994-1.963 2.287-1.638v-3.535c-1.492-.373-2.114.526-2.537 1.12M68.062 25.396v-1.195h-4.104v2.589c.374.075.448.448.423.721v3.981c-.025.325-.1 1.018-.423 1.143v2.313h4.9v-2.213c-.224-.05-.548-.475-.548-.848V29.45c0-1.217.996-1.963 2.264-1.638v-3.535c-1.468-.373-2.09.526-2.512 1.12M56.944 32.335v-1.79h.92v-2.362h-.92v-1.27c.025-.3.472-.523.92-.546V24.03h-1.542c-1.492 0-3.233 1.268-3.233 2.76l-.051 5.87c.15 1.616 2.388 2.56 4.826 2.637v-2.413c-.448.025-.895-.177-.92-.549zm.92 2.962c1.742.023 3.582-.372 4.752-1.32v-2.586l-3.806.023-.15.945c-.024.348-.399.524-.796.524v2.414zm0-4.752h4.776v-4.003c-.473-1.84-1.792-2.39-3.483-2.513h-1.293v2.338c.398 0 .822.15.896.545v1.27h-.896v2.363zM41.174 32.51c-.37-.025-.472-.323-.545-.597l-.076-5.966 2.164 9.002h2.115l2.112-9.002.1 6.04c-.073.301-.198.523-.596.573v2.413h5.446v-2.535c-.223.047-.57-.15-.57-.525v-8.131c0-.424.27-.624.57-.698v-2.712h-5.968l-1.693 6.418-1.466-6.393h-6.343v2.562c.398.049.647.45.671.77v8.184c-.075.375-.323.624-.646.647v2.413h4.724V32.51M9.29 10.201c-.101-.45-.325-.772-.696-.946a.895.895 0 0 0-.275-.1c-.15-.048-.274-.048-.423-.048-.024.122-.05.272-.024.422.048.322.273.622.721.871.1.049.2.099.323.15.149.046.273.046.399.046 0-.124 0-.272-.025-.395zM12.522 14.303c-.323-.448-1.068-.672-1.79-.644-.573 0-1.12.196-1.393.57-.1.197-.1.298.2.398.347-.15.72-.273 1.194-.298.421 0 .92.073 1.566.298.223 0 .223-.2.223-.324z"/><path d="M32.941 18.655v-.546c-.047-.722-.373-1.519-1.043-2.439-.945-1.117-2.312-1.715-3.732-2.162-.793-.275-1.639-.471-2.41-.697a31.052 31.052 0 0 1-1.196-.373c-.92-.224-1.641-.521-2.162-.87a2.774 2.774 0 0 1-.524-.4c-.398-.372-.646-.767-.744-1.168a2.267 2.267 0 0 1 0-.82c.124-.424.373-.773.744-1.02.15-.1.323-.174.524-.249.744-.246 1.765-.125 2.86.622.149.1.324.174.497.275.671.372 1.444.745 2.41.772.201.023.4.023.623 0 2.39-.473 3.534-3.11 3.98-4.204-1.517.147-3.033.147-4.602.123-.695 0-1.417 0-2.137.024h-.274c-1.044 0-2.288.15-3.357.525l-.524.222c-.249.1-.497.25-.744.399a7.904 7.904 0 0 0-.698.622c-.721.794-.97 2.461-.472 3.433.299.62.697 1.116 1.17 1.515.247.2.495.374.744.523.174.099.35.176.524.247 1.02.5 2.213.747 3.357 1.044.274.079.523.152.795.226.572.176 1.12.4 1.616.622.996.447 1.866.995 2.786 1.716 1.567 2.192-.048 3.732-1.964 3.955-.274.024-.548.024-.823.049-.793.027-1.615-.049-2.41-.172a12.44 12.44 0 0 1-3.358-1.07c-.173-.076-.35-.174-.523-.252a11.084 11.084 0 0 1-.745-.472c-.249-.15-.472-.347-.697-.52-1.493-1.27-1.767-2.886-2.712-4.652l-1.417-2.487c.597.075 1.046.126 1.817 0-.15-1.344-.947-1.84-.947-2.039.598-.697 1.094-2.016.822-3.086-.223-1.117-.845-1.965-1.89-2.56 0 0-.026 0-.026-.026a2.387 2.387 0 0 0-.97-.274c-.496-.05-.995.078-1.467.3-.1.05-.15.073-.175.1-.05.048-.024.072 0 .072.051.027.124.051.175.077 1.542 1.069.67 2.212-.175 2.262-.272.026-.52-.076-.72-.299H8.916c-.123.075-.223.123-.323.175-1.32.572-1.468-1.691-.224-2.138.224-.077.224-.077.098-.2-.521-.298-1.268-.298-1.69-.298-.397 0-.771.047-1.119.173-1.144.424-1.966 1.468-2.214 2.76-.223 1.146.324 1.99.97 2.712-.596.423-1.044 1.541-.671 2.438.572-.074 1.194-.372 1.815-.549-.969 3.333 0 .276-2.561 7.662A5.675 5.675 0 0 0 2.5 20.62v.1c0 1.196.372 2.388 1.093 3.232-.87 1.645-.347 3.16.175 4.576.72 1.966.822 4.13-.098 6.444l1.988-.025h1.817c-.076-1.817.421-3.456.744-5.35.124.152.248.252.375.349.421.251.894.151 1.392-.149h.125c.171.35.397.648.622.921.745.896 1.691 1.318 2.734 1.591.523.127 1.07.226 1.643.297.273.052.522.076.796.127.1-.375.173-.722.199-1.019.174-1.073.048-1.769.048-2.613.3-.077.673-.148.97-.225.797-.199.772.82.772.82l1.342-.199c-.073 1.994-1.218 4.182-2.46 5.523l4.352-.026h.173c.173-.447.374-.895.572-1.343.173-.347.35-.67.523-.993.348-.673.745-1.32 1.193-1.94.1-.149.349-.3.523-.077.472.6 1.02.871 1.642.92.423.027.896-.07 1.392-.271-.372.895-.87 1.765-1.392 2.61a17.19 17.19 0 0 1-.721 1.094h5.248c.148-1.865 1.119-4.176 2.163-5.87.473-.396.25-.795-.323-.943-.798-.349-1.891-1.717-2.289-2.585-.471-.948-1.168-2.317-1.667-3.11-.198-.323-.348-.523-.445-.571.123.048.272.07.445.07 1.57.128 4.578-.99 4.775-3.33zm-6.49-11.813h4.053c-.098.299-.622.796-1.068 1.02a2.83 2.83 0 0 1-1.27.374 2.638 2.638 0 0 1-1.566-.373c-.322-.225-.545-.3-.772-.523-.05-.448.276-.498.624-.498zM6.107 33.78l-.448-.028h-.35c.176-.992.499-2.036.225-3.48-.249-1.343-.77-2.739-.969-4.03-.175-1.245.548-.472 1.094.248.373.472.671.946.621.848 1.045 1.964.15 4.35-.173 6.442zm4.627-6.593c0 .027-.026.027-.026.05-.374.497-1.22 1.766-2.113 1.246-.15-.1-.324-.251-.473-.45-.748-1.019-1.32-2.114-2.14-3.107-.1-.124-.199-.276-.323-.402-.97-1.216-1.866-2.459-1.915-4.076.272-1.47 1.369-.92 1.915-.424.099.076.149.149.223.224.523.495.699 1.097.97 1.94l1.07-.023c0-1.32-1.144-2.862-2.263-3.61-.572-.371-1.144-.696-1.045-1.316.348-.97.696-1.965 1.045-2.96.648-1.767 1.219-3.582 1.467-5.471-.648-.25-1.119-.473-1.467-.723a1.955 1.955 0 0 1-.523-.597c-.323-.795-.596-1.94.523-2.536.2-.098.422-.198.695-.249-.196.302-.373.82-.147 1.345.396 1.067 1.391 1.738 2.388.995.074-.077.149-.128.222-.2h3.931c.124.098.373.222.72.298.498.124 1.168.124 1.643-.274a1.47 1.47 0 0 0 .399-.523c.172-.421.198-.918.048-1.418-.125-.421.25-.172.473.026.026.024.05.052.075.099.596.748.622 2.14 0 2.935-.2.25-.472.45-.797.547-.074 0-.124.025-.198.025-.548.075-1.095.1-1.642.1-.25 0-.522 0-.772-.025-.77.695-1.292 2.113-.72 3.184 0 .224.122.349.122.422-.322.176-.894.324-1.365.35-.2 0-.4-.026-.548-.101-.946-.399-1.642.323-.92 1.046.173 0 .496-.201.846-.224.198-.027.397-.05.622-.077.521-.023 1.093.05 1.79.375.348.224.895-.275.795-.67-.274-.523-.148-1.148.15-1.669.223-.373.546-.673.845-.845.249.372.522.795.797 1.22.347.545.67 1.117.995 1.715.273.474.546.97.769 1.467.846 1.468 1.145 3.333.523 4.902-.173.644-.646 1.216-1.292 1.787-.3.275-.648.55-.995.821-.524.424-1.096.847-1.643 1.294-.347.323-.72.647-1.02.972-.645.72-1.069 1.617-1.714 2.585zM13.99 9.503c-.05.274-.2.522-.523.746-.15.1-.322.2-.52.274-.15.049-.276.049-.4.049 0-.123.026-.271.026-.397.098-.523.398-.87.894-1.02.026-.025.051-.025.075-.025.15-.05.275-.05.422-.05.026.125.05.273.026.423zm1.667 17.636a1.628 1.628 0 0 1-.547.743c-.448.35-1.045.55-1.643.748-.398.125-.796.225-1.118.373-.423.175-.124.496.298.648.274.025.548.025.82.025.497-.025.972-.1 1.368-.125.1.548.076 1.092-.048 1.593-.424-.077-.87-.126-1.32-.225-.422-.099-.82-.224-1.168-.448-.921-.55-1.344-1.368-.87-2.313.447-.921 1.169-1.569 2.038-2.165l.026-.025c.447-.298 1.12-.273 1.617 0 .447.224.745.645.547 1.171zm1.366.223c0-.872-.222-1.741-.918-2.365-.026-.022-.049-.048-.075-.07-.25-.125-.598-.302-.92-.424a1.466 1.466 0 0 0-.598-.15c.174-.152.373-.324.598-.5.174-.148.373-.297.547-.422.15-.123.298-.222.448-.347.296-.224.622-.448.871-.671 1.193-1.096 1.989-2.363 1.84-4.03.472.548 1.443 1.316 2.314 1.84.273.149.52.3.744.398.051 0 .074 0 .101.026-.027 0-.077.025-.1.025-.348.15-.549.396-.745.696-.101.2-.2.372-.326.572-.772 1.664-.372 2.908.326 4.077.247.373.495.723.744 1.096.051.048.101.124.15.172l-.15.026-.744.175-1.72.348c.127-.424.278-1.044.176-1.044l-2.563.572zm5.772 2.137c-.125.2-.275.402-.398.6-.173.248-.35.521-.523.769-.249.424-.497.848-.745 1.267-.275.55-.547 1.074-.797 1.645h-1.069c.622-1.173 1.49-2.887 1.54-4.63l.326-.047.745-.148.523-.1.173-.025c.598-.075.524.225.225.669zm3.929.448c-.273.276-.523.376-.969.3-.076-.024-.173-.048-.273-.076-.523-.172-.772-.672-.848-1.342l1.121.399.92.347c.248.101.273.123.049.372zm1.442-4.65c.772 1.417 1.494 2.81 2.738 3.904-.622 1.442-1.468 2.934-2.016 4.602h-1.591c.222-.4.572-.944.869-1.515.598-1.122 1.046-2.387.375-3.262-.125-.072-.249-.148-.375-.222-.82-.473-1.64-.77-2.41-1.07a12.596 12.596 0 0 1-1.196-.547c-.87-.473-1.666-.921-2.163-1.79-.25-.3-.4-.648-.523-.996-.172-.57-.172-1.168 0-1.664.124-.324.273-.572.523-.797.298-.277.745-.472 1.293-.472.771 0 1.466.224 2.065.62.299.2.571.45.822.72.645.796 1.144 1.645 1.589 2.49zM147.008 20.323h4.228l.05 4.502c1.816-1.344 5.696-.845 5.645 1.864v4.23c0 .472-.225 1.54.448 1.618v2.484h-4.078c-.076-.845-.226-1.69-.25-2.51v-4.752c.1-1.193-.994-.946-1.79-.846v4.678c.074.396.124.796.647.946v2.436h-4.9v-2.436c.272-.079.497-.326.497-.624V23.58c0-.397.049-.67-.497-.743v-2.514M142.083 28.405h3.757v-2.937c-1.818-1.888-9.427-2.66-9.377 1.57l-.026 4.949c-.124 4.08 6.99 4.055 9.403 1.816v-3.332h-3.808v1.664c0 .774-1.615.948-1.715.075v-5.097c-.049-.972 1.866-.972 1.766 0v1.292M124.598 24.2v2.413c.324 0 .546.35.546.698v4.628c-.023.349-.274.669-.546.721v2.336h5v-2.36c-.223 0-.598-.5-.598-.797v-4.973c.572-.151 1.79-.446 1.866 1.043v4.602c0 .821 0 1.665.222 2.462l4.155-.024V32.56c-.424-.122-.397-.396-.446-.647v-5.199c-.05-3.356-4.38-3.356-5.895-1.467V24.2h-4.304M112.535 24.152h5.247v2.437c-.2.025-.596.349-.472.598l1.094 4.005c.323-1.29.672-2.76.994-4.052.05-.202-.223-.574-.571-.574v-2.414h4.527v2.39c-.275.024-.647.396-.673.645-.894 3.284-1.814 6.565-2.86 9.704-.646 1.811-3.383 2.385-5.371 1.587V36.29c.92 0 2.015-.446 1.617-1.59l-2.81-7.513c-.175-.275-.424-.498-.722-.521v-2.514M101.464 23.008c.6.202.673.673.673 1.169v6.89c0 .447.026 1.493-.673 1.493v2.413h10.996v-7.04h-4.154v3.359c-.15 1.067-.996.944-1.817.82v-8.06c-.023-.371.3-1.044.622-1.019v-2.636h-5.647v2.61M92.387 20.448h4.403V31.94c.025.297.1.598.471.721v2.313h-4.874V32.66c.598-.175.447-1.07.547-1.493v-7.089c0-.373-.024-1.193-.547-1.241v-2.389M85.895 20.448h4.4V31.94c.027.297.102.598.477.721v2.313h-4.877V32.66c.597-.175.472-1.07.548-1.493v-7.089c0-.373-.026-1.193-.548-1.241v-2.389M80.226 31.913c-.077.375-.175.473-.5.624v2.436h4.925V32.51c-.373-.098-.522-.323-.545-.597V24.2h-4.38v2.388c.3.177.4.472.5.722v4.602"/></g></svg>