<svg width="160" height="44" xmlns="http://www.w3.org/2000/svg"><path d="M.494 33.274v-4.791c2.739.858 5.162 1.289 7.272 1.289 2.91 0 4.362-.766 4.362-2.295a1.88 1.88 0 0 0-.633-1.439c-.434-.41-1.548-.983-3.333-1.712-3.208-1.314-5.298-2.43-6.27-3.357C.628 19.75 0 18.21 0 16.348c0-2.399.92-4.224 2.754-5.482C4.567 9.623 6.933 9 9.847 9c1.607 0 3.934.296 6.974.883v4.607c-2.264-.899-4.362-1.35-6.305-1.35-2.732 0-4.098.75-4.098 2.245 0 .562.275 1.015.824 1.37.46.286 1.724.889 3.787 1.815 2.973 1.314 4.952 2.456 5.94 3.425 1.173 1.155 1.758 2.644 1.758 4.474 0 2.625-1.148 4.628-3.445 6.007-1.858 1.121-4.272 1.681-7.231 1.681-2.503 0-5.023-.295-7.557-.883zm22.074.391h6.805V9.424h-6.805v24.241zm13.05 0V9.424h17.457v4.383h-10.9v5.475h9.49v3.998h-9.49v5.755h11.182v4.63H35.618zm22.183 0V9.424h8.826l6.131 15.489 6.284-15.49h8.382v24.242H80.97V16.502L73.824 33.91h-4.217l-7.01-17.408v17.163H57.8zm35.866 0V9.424h17.456v4.383h-10.897v5.475h9.485v3.998h-9.485v5.755h11.18v4.63h-17.74zm22.219 0V9.424h7.887l8.37 16.227V9.424h4.795v24.241h-7.666l-8.59-16.447v16.447h-4.796zm25.881-.391v-4.791c2.719.858 5.14 1.289 7.272 1.289 2.912 0 4.367-.766 4.367-2.295 0-.571-.21-1.049-.62-1.439-.431-.41-1.55-.983-3.348-1.712-3.197-1.3-5.292-2.421-6.273-3.357-1.26-1.21-1.892-2.754-1.892-4.641 0-2.385.92-4.204 2.755-5.462C145.842 9.623 148.208 9 151.125 9c1.641 0 3.763.263 6.37.781l.602.102v4.607c-2.264-.899-4.37-1.35-6.32-1.35-2.724 0-4.081.75-4.081 2.245 0 .562.27 1.015.822 1.37.437.273 1.707.88 3.804 1.815 2.95 1.314 4.928 2.456 5.922 3.425C159.414 23.15 160 24.64 160 26.47c0 2.625-1.14 4.628-3.427 6.007-1.869 1.121-4.284 1.681-7.245 1.681-2.504 0-5.024-.295-7.56-.883z" fill="#455065" fill-rule="evenodd"/></svg>