<svg xmlns="http://www.w3.org/2000/svg" xmlns:xlink="http://www.w3.org/1999/xlink" width="209" height="129" viewBox="0 0 209 129"><style>g { transform-origin: center center; } #center-icon { animation: show 500ms, smallPop 500ms; } #right-icon, #left-icon { animation: show 500ms, mediumPop 500ms; } #picture-icon { animation: show 500ms, moveLeft 500ms; } #dollar-icon { animation: show 500ms, moveRight 500ms; } #code-icon { animation: show 500ms, moveUp 500ms; } @keyframes moveUp { from { transform: translateY(10px) } to { transform: translate(0) } } @keyframes moveLeft { from { transform: translate(15px, 67px) } to { transform: translate(0, 67px) } } @keyframes moveRight { from { transform: translate(-15px, 0) } to { transform: translate(0, 0) } } @keyframes smallPop { from { transform: scale(.9) } to { transform: scale(1) } } @keyframes mediumPop { from { transform: scale(.8) } to { transform: scale(1) } } @keyframes show { from { opacity: 0 } to { opacity: 1 } }</style><defs><path id="a" d="M0 0h63v88H0z"/><circle id="b" cx="18" cy="18" r="18"/><path id="d" d="M0 0h63v88H0z"/><circle id="e" cx="18" cy="18" r="18"/><path id="g" d="M0 0h76v107H0z"/><circle id="h" cx="22" cy="22" r="22"/><path id="j" d="M0 0h31v21H0z"/></defs><g fill="none" fill-rule="evenodd"><g id="left-icon"><g transform="translate(24 33)"><use fill="#FFF" xlink:href="#a"/><path stroke="#6A7384" d="M.5.5h62v87H.5z"/></g><path fill="#DADCE0" d="M33 96h46v2H33zm0 4h40v2H33zm0 5h44v2H33zm0 4h33v2H33z" opacity=".5"/><path fill="#B2EFD9" d="M33 90h31v2H33z"/><g transform="translate(37 39)"><mask id="c" fill="#fff"><use xlink:href="#b"/></mask><use fill="#00CC83" fill-opacity=".3" xlink:href="#b"/><g fill="#00CC83" mask="url(#c)"><g transform="translate(4.1 5.73)"><circle cx="13.91" cy="7.36" r="7.36"/><rect width="28.64" height="28.64" y="16.36" rx="14"/></g></g></g></g><g id="right-icon"><g transform="translate(128 33)"><use fill="#FFF" xlink:href="#d"/><path stroke="#6A7384" d="M.5.5h62v87H.5z"/></g><path fill="#DADCE0" d="M137 96h46v2h-46zm0 4h40v2h-40zm0 5h44v2h-44zm0 4h33v2h-33z" opacity=".5"/><path fill="#DADCE0" d="M137 90h31v2h-31z"/><g transform="translate(141 39)"><mask id="f" fill="#fff"><use xlink:href="#e"/></mask><use fill="#DADCE0" xlink:href="#e"/><g fill="#6A7384" mask="url(#f)"><g transform="translate(4.1 5.73)"><circle cx="13.91" cy="7.36" r="7.36"/><rect width="28.64" height="28.64" y="16.36" rx="14"/></g></g></g></g><g id="center-icon"><g transform="translate(69 22)"><use fill="#FFF" xlink:href="#g"/><path stroke="#6A7384" d="M.5.5h75v106H.5z"/></g><path fill="#DADCE0" d="M80 99h56v2H80zm0 5h48v2H80zm0 5h53v2H80zm0 5h40v2H80z" opacity=".5"/><path fill="#BCC9F0" d="M80 91h37v2H80z"/><g transform="translate(85 29)"><mask id="i" fill="#fff"><use xlink:href="#h"/></mask><use fill="#204ECF" fill-opacity=".3" xlink:href="#h"/><g fill="#204ECF" mask="url(#i)"><g transform="translate(5 7)"><circle cx="17" cy="9" r="9"/><rect width="35" height="35" y="20" rx="14"/></g></g></g></g><path id="dollar-icon" fill="#DADCE0" d="M196.9 108.88l.53-.72c.71.56 1.54 1 2.48 1.29.95.29 1.96.35 3.04.17l-1.72-8.09a32.6 32.6 0 0 1-2.27-.21 6.16 6.16 0 0 1-1.98-.62c-.33-.15-.6-.34-.8-.56a4.19 4.19 0 0 1-.98-1.9 3.8 3.8 0 0 1 .82-3.4 6 6 0 0 1 3.36-2.01l-.49-2.28.82-.18.5 2.32c2.1-.32 3.9.12 5.38 1.33l-.51.71a5.76 5.76 0 0 0-4.71-1.28l1.54 7.25 1.2.1c.33.04.71.1 1.14.18a6.2 6.2 0 0 1 2.06.73 3.44 3.44 0 0 1 1.48 1.57 4.65 4.65 0 0 1-.46 4.96 5 5 0 0 1-1.35 1.11c-.58.35-1.27.63-2.05.84l.48 2.26-.82.17-.48-2.23a7.8 7.8 0 0 1-3.43-.09 7 7 0 0 1-2.78-1.42zm-.82-10.82c.09.42.25.77.48 1.07a2.93 2.93 0 0 0 1.86 1.14c.45.12.86.2 1.22.24.35.05.82.09 1.4.13l-1.5-7.04c-1.18.3-2.1.86-2.78 1.7a3.2 3.2 0 0 0-.68 2.76zm7.69 11.38a6.79 6.79 0 0 0 1.7-.7c.48-.3.86-.61 1.12-.93a3.64 3.64 0 0 0 .73-3.13 3.45 3.45 0 0 0-1.35-2.12 4 4 0 0 0-1.15-.52c-.47-.14-.9-.24-1.28-.3-.4-.06-.87-.11-1.44-.16l1.67 7.86z"/><path id="code-icon" fill="#BCC9F0" d="M130.2 16.99l-12.36-3.38-.2-.94 9.91-8.14.27 1.24-8.73 7.1 10.85 2.87.26 1.25zm2.48 2.4l-1.15.24L133.74.37l1.14-.25-2.2 19.27zm16.09-12.36l-9.92 8.12-.27-1.25 8.77-7.04-10.89-2.93-.26-1.24 12.37 3.4.2.94z"/><g id="picture-icon" transform="translate(0 67)"><use fill="#FFF" xlink:href="#j"/><path stroke="#B2EFD9" d="M.5.5v20h30V.5H.5z"/><circle cx="6.5" cy="7.5" r="3" stroke="#B2EFD9"/><path stroke="#B2EFD9" stroke-linecap="square" d="M5 20L17 8l4 4 4-4 5 5"/></g></g></svg>
