<svg xmlns="http://www.w3.org/2000/svg" xmlns:xlink="http://www.w3.org/1999/xlink" width="201" height="130" viewBox="0 0 201 130"><style>g { transform-origin: center center; } #center-icon { animation: show 500ms, pop 500ms; } #user-left { animation: show 500ms, moveLeft 500ms; } #user-bottom { animation: show 500ms, moveDownRight 500ms; } #user-top { animation: show 500ms, moveUpRight 500ms; } #arrow-icon { animation: show 500ms, moveUp 500ms; } @keyframes moveUp { from { transform: translate(0, 10px) } to { transform: translate(0, 0) } } @keyframes moveUpRight { from { transform: translate(117px, 10px) } to { transform: translate(127px, 0) } } @keyframes moveDownRight { from { transform: translate(132px, 81px) } to { transform: translate(142px, 91px) } } @keyframes moveLeft { from { transform: translate(20px, 56px) } to { transform: translate(0, 56px) } } @keyframes pop { from { transform: scale(.9) } to { transform: scale(1) } } @keyframes show { from { opacity: 0 } to { opacity: 1 } }</style><defs><path id="a" d="M0 0h131.66v96H0z"/><ellipse id="b" cx="19.6" cy="19.5" rx="19.6" ry="19.5"/><ellipse id="d" cx="19.6" cy="19.5" rx="19.6" ry="19.5"/><ellipse id="f" cx="19.6" cy="19.5" rx="19.6" ry="19.5"/></defs><g fill="none" fill-rule="evenodd"><g id="arrow-icon" stroke="#D4D6DA"><path d="M189.17 30H200v10.8"/><path d="M200 30l-21.21 21.15-8.58-8.55L155.78 57"/></g><g id="center-icon"><g transform="translate(30.15 14)"><use fill="#FFF" xlink:href="#a"/><path stroke="#6A7384" d="M.5.5h130.66v95H.5z"/></g><g fill="#BCC9F0"><path d="M51.79 29.26h50.5v1.79h-50.5zm0 4.48h43.28v1.79H51.79zm0 22.43h21.64v1.79H51.79zm9.91-8.97H105v1.79H61.7zm-9.91-8.97h47.79v1.79h-47.8zm0 22.43h26.15v1.79H51.79zm9.91-8.97h47.8v1.79H61.7zm-9.91-8.99h36.07v1.8H51.79z" opacity=".5"/><path d="M44.58 24.77h26.15v1.79H44.58zm0 40.37h18.94v1.79H44.58z"/></g><g stroke="#B2EFD9" transform="translate(86.06 81.29)"><path d="M.5.5h26.95v17.84H.5z"/><ellipse cx="5.86" cy="6.73" rx="2.66" ry="2.64"/><path stroke-linecap="square" d="M4.51 17.94L15.33 7.18l3.61 3.59 3.6-3.59 4.51 4.48"/></g><g stroke="#B2EFD9" transform="translate(119.43 71.42)"><path d="M.5.5h26.95v17.84H.5z"/><ellipse cx="5.86" cy="6.73" rx="2.66" ry="2.64"/><path stroke-linecap="square" d="M4.51 17.94L15.33 7.18l3.61 3.59 3.6-3.59 4.51 4.48"/></g></g><g id="user-left" transform="translate(0 56)"><mask id="c" fill="#fff"><use xlink:href="#b"/></mask><use fill="#BCC9F0" xlink:href="#b"/><g fill="#204ECF" mask="url(#c)"><g transform="translate(4.45 6.2)"><ellipse cx="15.14" cy="7.98" rx="8.02" ry="7.98"/><rect width="31.18" height="31.02" y="17.73" rx="14"/></g></g></g><g id="user-bottom" transform="translate(142.71 91)"><mask id="e" fill="#fff"><use xlink:href="#d"/></mask><use fill="#B2EFD9" xlink:href="#d"/><g fill="#00CC83" mask="url(#e)"><g transform="translate(4.45 6.2)"><ellipse cx="15.14" cy="7.98" rx="8.02" ry="7.98"/><rect width="31.18" height="31.02" y="17.73" rx="14"/></g></g></g><g id="user-top" transform="translate(127.64)"><mask id="g" fill="#fff"><use xlink:href="#f"/></mask><use fill="#D4D6DA" xlink:href="#f"/><g fill="#687182" mask="url(#g)"><g transform="translate(4.45 6.2)"><ellipse cx="15.14" cy="7.98" rx="8.02" ry="7.98"/><rect width="31.18" height="31.02" y="17.73" rx="14"/></g></g></g></g></svg>
