<svg xmlns="http://www.w3.org/2000/svg" xmlns:xlink="http://www.w3.org/1999/xlink" width="144" height="107" viewBox="0 0 144 107"><style>g { transform-origin: center center } #icon { animation: pop 500ms, show 500ms; } #code-right { animation: show 500ms, moveUpRight 500ms; } #code-left { animation: show 500ms, moveUpLeft 500ms; } @keyframes moveUpLeft { from { transform: translate(15px, 15px) } to { transform: translate(0, 0) } } @keyframes moveUpRight { from { transform: translate(-15px, 15px) } to { transform: translate(0, 0) } } @keyframes pop { from { transform: scale(.7) } to { transform: scale(1) } } @keyframes show { from { opacity: 0 } to { opacity: 1 } }</style><defs><path id="a" d="M0 0h76v107H0z"/><circle id="b" cx="22" cy="22" r="22"/></defs><g id="icon" fill="none" fill-rule="evenodd"><g transform="translate(36)"><use fill="#FFF" xlink:href="#a"/><path stroke="#6A7384" d="M.5.5h75v106H.5z"/></g><path fill="#DADCE0" d="M47 77h56v2H47zm0 5h48v2H47zm0 5h53v2H47zm0 5h40v2H47z" opacity=".5"/><path fill="#BCC9F0" d="M47 69h37v2H47z"/><g transform="translate(52 7)"><mask id="c" fill="#fff"><use xlink:href="#b"/></mask><use fill="#204ECF" fill-opacity=".3" xlink:href="#b"/><g fill="#204ECF" mask="url(#c)"><g transform="translate(5 7)"><circle cx="17" cy="9" r="9"/><rect width="35" height="35" y="20" rx="14"/></g></g></g></g><path id="code-right" fill="#BCC9F0" d="M129.15 57.77l-9.51-2.6-.16-.72 7.63-6.26.2.96-6.71 5.45 8.34 2.21.2.96zm1.9 1.85l-.88.18 1.7-14.81.88-.19-1.7 14.82zm12.38-9.5l-7.63 6.24-.2-.96 6.73-5.42-8.37-2.25-.2-.96 9.51 2.62.16.73z"/><path id="code-left" fill="#BCC9F0" d="M10.21 26.8L.3 18.68l.2-.94 12.37-3.4-.26 1.24-10.86 2.93 8.74 7.04-.27 1.25zM11.5 30l-1.15-.25 9.85-16.7 1.15.25L11.5 30zm19.72-4.74l-12.36 3.38.26-1.25L30 24.52l-8.75-7.1.27-1.25 9.9 8.15-.2.94z"/></svg>
