<svg width="208" height="22" xmlns="http://www.w3.org/2000/svg"><path d="M205.896 17.665c-.602 0-1.104.487-1.104 1.143 0 .657.502 1.144 1.104 1.144.602 0 1.104-.487 1.104-1.144 0-.656-.502-1.143-1.104-1.143zm-39.95 2.213h5.069v-.437l-.552-.122c-.502-.122-.728-.39-.728-1.07v-6.615h1.18c.728 0 1.104.17 1.154 1.654l.126 3.113c.1 2.796.928 3.575 2.334 3.575 1.43 0 1.806-.949 1.806-2.286v-.56h-.527v.413c0 .9-.125 1.533-.477 1.533-.326 0-.351-.243-.426-1.362l-.15-2.14c-.201-2.87-.578-3.867-2.761-4.257 2.083-.534 3.362-2.018 3.362-4.134 0-2.748-2.233-4.062-4.366-4.062h-8.557v.438l.477.097c.903.195.929.657.929 2.627v9.68c0 2.164-.628 3.21-2.059 3.21-1.279 0-1.982-.608-1.982-2.967V4.702c0-.68.226-.875.778-.997l.678-.146v-.438h-5.245v.438l.552.146c.502.146.677.34.677 1.022v11.309c0 2.553 1.531 3.964 3.865 3.964 2.334 0 3.488-1.41 3.488-4.037V5.408c0-1.314.276-1.776 1.38-1.776.879 0 1.255.292 1.255 1.095v13.522c0 .68-.226.924-.728 1.046l-.552.146v.437zm33.676-15.151c0-.681.226-.9.728-.998l.678-.146v-.462h-5.22v.438l.552.146c.502.146.728.34.728 1.022v13.62c0 .656-.276 1.02-1.054 1.02-.904 0-1.03-.291-1.355-1.726l-3.212-14.568h-1.004l-3.061 14.106c-.352 1.58-.527 1.946-1.205 2.14l-.427.122v.437h3.589v-.437l-.527-.098c-.753-.146-.954-.535-.577-2.383l1.807-9.023 1.982 9.558c.301 1.386.276 1.654-.803 1.848l-.527.098v.437h13.3v-5.545h-.477c-.25 2.554-.778 4.962-2.91 4.962h-1.005V4.727zm-7.83 10.628v-.657h-3.387l-.1.657h3.488zM177.792 5.018v11.626c0 1.75 0 2.578-.904 2.724l-.451.073v.437h3.688v-.437c-1.606-.22-1.606-.754-1.606-2.651V5.748l-.602-.535 6.148 14.665h1.054V6.356c0-1.994 0-2.432 1.004-2.7l.351-.097v-.438h-3.79v.438l.427.097c1.28.22 1.28.706 1.28 2.554v8.464l.251-.073-4.667-11.48h-3.589v.438l.351.097c.403.122.628.56 1.055 1.362zm-8.056-1.313h1.004c1.004 0 1.932.632 1.932 3.794 0 3.235-.702 3.551-2.107 3.551h-.829V3.705zm-16.712 7.637c0 7.028-.602 8.026-1.907 8.026-1.305 0-1.882-.998-1.882-7.978 0-6.76.627-7.734 1.882-7.734 1.305 0 1.907.973 1.907 7.686zm2.735.146c0-4.645-1.53-8.488-4.642-8.488-3.137 0-4.618 3.843-4.618 8.488 0 4.67 1.531 8.512 4.618 8.512 3.187 0 4.642-3.843 4.642-8.512zm-10.74-6.761c0-.681.176-.9.677-1.022l.552-.146v-.438h-5.194v.438l.627.146c.502.122.779.292.779.997v11.699c0 1.629-.151 2.942-1.406 2.942-.803 0-1.405-.608-1.38-1.045.075-.755 1.38-.706 1.48-1.922.076-.875-.502-1.24-1.028-1.313-.778-.097-1.732.535-1.757 1.8-.025 1.629 1.079 3.113 2.961 3.113 2.083 0 3.69-1.362 3.69-3.965V4.727zm-83.814 0c0-.681.226-.9.728-.998l.677-.146v-.462h-5.22v.438l.553.146c.502.146.728.34.728 1.022v13.62c0 .656-.277 1.02-1.055 1.02-.903 0-1.053-.291-1.38-1.726L53.023 3.073H52.02l-3.062 14.106c-.35 1.58-.527 1.946-1.204 2.14l-.427.122v.437h3.589v-.437l-.527-.098c-.753-.146-.954-.535-.577-2.383l1.806-9.072 1.983 9.607c.276 1.386.276 1.654-.803 1.848l-.527.098v.437h13.325v-5.545h-.477c-.251 2.554-.778 4.962-2.911 4.962h-1.004V4.727zm69.861-1.022h.553c1.556 0 2.083 2.408 2.258 4.962h.477V3.12h-9.11v5.546h.478c.175-2.554.703-4.962 2.258-4.962h.552V18.25c0 .68-.225.924-.727 1.046l-.653.146v.437h5.42v-.437l-.778-.17c-.476-.122-.728-.268-.728-1.022V3.705zm-11.467 7.758l.777.025c1.13.024 1.456.438 1.682 3.089h.477V7.815h-.477c-.276 2.116-.577 3.016-1.656 3.04l-.803.025V3.705h1.731c1.933 0 2.36 2.36 2.635 4.962h.477V3.12h-8.657v.438l.552.146c.576.146.727.487.727 1.046V18.25c0 .68-.225.924-.727 1.046l-.552.146v.437h8.908v-5.545h-.477c-.301 2.53-.627 4.962-2.886 4.962h-1.731v-7.832zm-9.46 0l.777.025c1.13.024 1.456.438 1.681 3.089h.477V7.815h-.477c-.275 2.116-.577 3.016-1.655 3.04l-.804.025V3.705h1.732c1.932 0 2.359 2.408 2.635 4.962h.476V3.12h-8.908v.438l.803.146c.577.146.728.487.728 1.046V18.25c0 .68-.226.924-.728 1.046l-.552.146v.437h8.908v-5.545h-.476c-.301 2.53-.628 4.962-2.886 4.962h-1.732v-7.832zM99.823 3.705h.753c1.003 0 1.932.632 1.932 3.794 0 3.186-.703 3.551-2.108 3.551h-.577V3.705zm-3.79 16.173h5.07v-.437l-.553-.122c-.502-.122-.727-.39-.727-1.07v-6.615h.928c.728 0 1.104.292 1.155 1.654l.125 3.113c.1 2.796.928 3.575 2.334 3.575 1.43 0 1.806-.949 1.806-2.286v-.56h-.527v.413c0 .9-.125 1.533-.476 1.533-.326 0-.352-.243-.427-1.362l-.15-2.14c-.201-2.943-.603-3.867-2.76-4.257 2.082-.534 3.362-2.018 3.362-4.134 0-2.748-2.234-4.062-4.367-4.062h-4.793v.438l.552.146c.503.146.728.34.728 1.022v13.522c0 .68-.225.924-.728 1.046l-.552.146v.437zM92.195 3.705h.552c1.556 0 2.083 2.408 2.259 4.962h.476V3.12h-9.109v5.546h.477c.176-2.554.703-4.962 2.259-4.962h.552V18.25c0 .68-.226.924-.728 1.046l-.653.146v.437h5.295v-.437l-.652-.146c-.652-.146-.728-.632-.728-1.046V3.705zm-5.797 11.82c0-4.986-5.646-6.3-5.646-9.923 0-.778.302-1.946 1.556-1.946 1.807 0 2.484 2.262 2.786 5.01h.476V3.122h-.3c-.126.535-.352.779-.678.779-.578 0-.879-.876-2.259-.876-2.133 0-3.588 1.727-3.588 3.989 0 4.11 5.646 5.837 5.646 9.63 0 1.727-.828 2.7-1.957 2.7-1.682 0-2.786-1.92-3.087-5.01h-.477v5.545h.301c.251-.802.578-.875.853-.875.477 0 .98.973 2.435.973 2.233 0 3.94-1.873 3.94-4.451zM69.962 4.727c0-.681.226-.9.728-.998l.677-.146v-.462h-5.22v.438l.553.146c.502.146.727.34.727 1.022v13.522c0 .68-.225.924-.727 1.046l-.552.146v.437h8.205v-5.545h-.477c-.25 2.554-.777 4.962-2.91 4.962h-1.004V4.727zM53.349 15.355v-.657h-3.387l-.1.657h3.487zm-14.504 4.572h1.03l2.333-11.966h-.351l2.56 11.966h.903L48.38 5.821c.326-1.484.502-1.994 1.104-2.14l.477-.122v-.438h-3.538v.438l.527.097c.753.146.928.584.577 2.384l-1.982 9.46h.3L43.84 5.53c-.2-.95-.326-1.728.502-1.874l.552-.097v-.438H40.05v.438l.326.073c.502.122.577.414.778 1.338l.778 3.624-.15-2.19-1.732 8.853h.226L38.243 5.53c-.226-.997-.301-1.75.502-1.897l.377-.073v-.438h-4.944v.438l.477.122c.451.121.702.34 1.004 1.678l3.186 14.568zm-13.4-8.464l.778.025c1.13.024 1.455.438 1.681 3.089h.477V7.815h-.477c-.276 2.116-.577 3.016-1.656 3.04l-.803.025V3.705h1.732c1.932 0 2.359 2.408 2.634 4.962h.477V3.12h-8.657v.438l.552.146c.577.146.728.487.728 1.046V18.25c0 .68-.226.924-.728 1.046l-.552.146v.437h8.908v-5.545h-.477c-.3 2.53-.627 4.962-2.885 4.962h-1.732v-7.832zM9.661 19.878h5.144v-.437l-.577-.122c-.452-.097-.753-.39-.753-1.07v-6.64h3.79v6.64c0 .68-.301.973-.753 1.07l-.577.122v.437h5.144v-.437l-.552-.146c-.502-.122-.728-.39-.728-1.07V4.727c0-.681.226-.9.728-1.022l.552-.146v-.438h-5.144v.438l.577.146c.426.122.752.292.752.997v6.25h-3.789v-6.25c0-.68.276-.875.753-.997l.577-.146v-.438H9.661v.438l.552.146c.502.146.728.34.728 1.022v13.522c0 .68-.226.924-.728 1.046l-.552.146v.437zM5.821 3.705h.553c1.556 0 2.083 2.408 2.258 4.962h.477V3.12H0v5.546h.477c.175-2.554.702-4.962 2.258-4.962h.552V18.25c0 .68-.225.924-.728 1.046l-.652.146v.437h5.42v-.437l-.777-.17c-.477-.122-.728-.268-.728-1.022V3.705z" fill="#FFF" fill-rule="nonzero"/></svg>